# xmcd
#
# Track frame offsets:
#	183
#	13793
#	22918
#	36533
#	48090
#	63683
#	76440
#	88755
#	103828
#	109880
#	121938
#	137800
#	153640
#	166303
#	177340
#	191255
#	213608
#	230365
#	245223
#	260548
#	274463
#	284333
#	298018
#	308715
#	319608
#
# Disc length: 4411
#
# Revision: 3
# Processed by: cddbd v1.5.1PL0 Copyright (c) Steve Scherf et al.
# Submitted via: audiograbber 1.83.01
# Normalized: r2:DSETVAR1
#
DISCID=78113919
DTITLE=Various Artist - 25 Blues 'n' Soul Greats - volume 4
DYEAR=1900
DGENRE=Blues
TTITLE0=Muddy Waters - I Got A Rich Mans Woman
TTITLE1=Billie Holiday - When Your Lover Has Gone
TTITLE2=Howlin' Wolf - My Baby Walked Off
TTITLE3=John Lee Hooker - Little Wheel
TTITLE4=B. B. King - How Blue Can You Get
TTITLE5=Litte Walter - Off The Wall
TTITLE6=Sonny Boy Williamson - Cool Disposition
TTITLE7=Ray Charles - I'm wonderin' And Wonderin'
TTITLE8=Leadbelly - Big Fat Woman
TTITLE9=John Lee Hooker - Whiskey And Wimmen
TTITLE10=Howlin' Wolf - Killing Floor
TTITLE11=Billie Holiday - Easy To Remember
TTITLE12=Muddy Waters - Mean Mistreater
TTITLE13=Elmore James - Coming Home
TTITLE14=Little Walter - You Better Watch Yourself
TTITLE15=Howlin' Wolf - Moanin' At Midnigth
TTITLE16=John Lee Hooker - Process
TTITLE17=Leadbelly - In New Orleans
TTITLE18=Howlin' Wolf - Commit A Crime
TTITLE19=Elmore James - Hand In Hand
TTITLE20=John Lee Hooker - Dusty Road
TTITLE21=Muddy Waters - Sad Letter
TTITLE22=Billie Holiday - Ain't Nobody's Business
TTITLE23=Ray Charles - I Wonder Who's Kissing Her Now
TTITLE24=John Lee Hooker - What Do You Say
EXTD=Part of a collection called 100 Blues 'n' Soul Greats\n\nEntered by \nholgie@hotmail.com
EXTT0=
EXTT1=
EXTT2=
EXTT3=
EXTT4=
EXTT5=
EXTT6=
EXTT7=
EXTT8=
EXTT9=
EXTT10=
EXTT11=
EXTT12=
EXTT13=
EXTT14=
EXTT15=
EXTT16=
EXTT17=
EXTT18=
EXTT19=
EXTT20=
EXTT21=
EXTT22=
EXTT23=
EXTT24=
PLAYORDER=
